# AST/ASF file generated using VICON BodyLanguage
# -----------------------------------------------
:version 1.10
:name VICON
:units
  mass 1.0
  length 0.45
  angle deg
:documentation
   .ast/.asf automatically generated from VICON data using
   VICON BodyBuilder and BodyLanguage model FoxedUp or BRILLIANT.MOD
:root
   order TX TY TZ RX RY RZ
   axis XYZ
   position 0 0 0  
   orientation 0 0 0 
:bonedata
  begin
     id 1 
     name lhipjoint
     direction 0.541323 -0.757556 0.364798 
     length 2.47576 
     axis 0 0 0  XYZ
  end
  begin
     id 2 
     name lfemur
     direction 0.34202 -0.939693 0  
     length 7.46493  
     axis 0 0 20  XYZ
    dof rx ry rz
    limits (-160.0 20.0)
           (-70.0 70.0)
           (-60.0 70.0)
  end
  begin
     id 3 
     name ltibia
     direction 0.34202 -0.939693 0   
     length 7.73805   
     axis 0 0 20   XYZ
    dof rx
    limits (-10.0 170.0)
  end
  begin
     id 4 
     name lfoot
     direction 0.107174 -0.294458 0.949636   
     length 2.25864   
     axis -90 7.62852e-016 20   XYZ
    dof rx rz
    limits (-45.0 90.0)
           (-70.0 20.0)
  end
  begin
     id 5 
     name ltoes
     direction 1.53606e-011 -4.21934e-011 1   
     length 1.12451   
     axis -90 7.62852e-016 20   XYZ
    dof rx
    limits (-90.0 20.0)
  end
  begin
     id 6 
     name rhipjoint
     direction -0.524745 -0.766967 0.36933   
     length 2.44538  
     axis 0 0 0  XYZ 
  end
  begin
     id 7 
     name rfemur
     direction -0.34202 -0.939693 0   
     length 7.61604   
     axis 0 0 -20   XYZ
    dof rx ry rz
    limits (-160.0 20.0)
           (-70.0 70.0)
           (-70.0 60.0)
  end
  begin
     id 8 
     name rtibia
     direction -0.34202 -0.939693 0   
     length 7.61056   
     axis 0 0 -20   XYZ
    dof rx
    limits (-10.0 170.0)
 end
 begin
     id 9 
     name rfoot
     direction -0.12616 -0.346623 0.929482   
     length 2.46372  
     axis -90 -7.62852e-016 -20   XYZ
    dof rx rz
    limits (-45.0 90.0)
           (-20.0 70.0)
  end
  begin
     id 10 
     name rtoes
     direction -1.53531e-011 -4.22004e-011 1   
     length 1.21611   
     axis -90 -7.62852e-016 -20   XYZ
    dof rx
    limits (-90.0 20.0)
  end
  begin
     id 11 
     name lowerback
     direction -0.000778023 0.997293 -0.0735223   
     length 2.06139   
     axis 0 0 0   XYZ
    dof rx ry rz
    limits (-20.0 45.0)
           (-30.0 30.0)
           (-30.0 30.0)
  end
  begin
     id 12 
     name upperback
     direction 0.0222598 0.999722 -0.0078355   
     length 2.06383   
     axis 0 0 0   XYZ
    dof rx ry rz
    limits (-20.0 45.0)
           (-30.0 30.0)
           (-30.0 30.0)
  end
  begin
     id 13 
     name thorax
     direction 0.0219654 0.999405 0.0265994   
     length 2.07163   
     axis 0 0 0   XYZ
    dof rx ry rz
    limits (-20.0 45.0)
           (-30.0 30.0)
           (-30.0 30.0)
  end
  begin
     id 14 
     name lowerneck
     direction 0.0213282 0.988147 0.15202   
     length 1.75969   
     axis 0 0 0   XYZ
    dof rx ry rz
    limits (-20.0 45.0)
           (-30.0 30.0)
           (-30.0 30.0)
  end
  begin
     id 15 
     name upperneck
     direction -0.0546456 0.982624 -0.177379   
     length 1.79244   
     axis 0 0 0   XYZ
    dof rx ry rz
    limits (-20.0 45.0)
           (-30.0 30.0)
           (-30.0 30.0)
  end
  begin
     id 16
     name head
     direction -0.0199987 0.996855 -0.076686  
     length 1.80555  
     axis 0 0 0   XYZ
    dof rx ry rz
    limits (-20.0 45.0)
           (-30.0 30.0)
           (-30.0 30.0)
  end
  begin
     id 17 
     name lclavicle
     direction 0.929565 0.363219 -0.063096  
     length 3.55722  
     axis 0 0 0   XYZ
    dof ry rz
    limits (-20.0 10.0)
           (0.0 20.0)
  end
  begin
     id 18 
     name lhumerus
     direction 1 -4.48993e-011 -2.36203e-027   
     length 4.92785   
     axis 180 -30 -90   XYZ
    dof rx ry rz
    limits (-60.0 90.0)
           (-90.0 90.0)
           (-90.0 90.0)
  end
  begin
     id 19
     name lradius
     direction 1 -4.48947e-011 2.02997e-027   
     length 3.44052   
     axis 180 -30 -90   XYZ
    dof rx
    limits (-10.0 170.0)
  end
  begin
     id 20
     name lwrist
     direction 1 -4.48962e-011 1.45991e-027   
     length 1.72026   
     axis 1.49639e-024 90 90   XYZ
    dof ry
    limits (-180.0 0.0)
 end
  begin
     id 21 
     name lhand
     direction 1 -4.48984e-011 2.91906e-027   
     length 0.654326   
     axis -1.863e-015 90 90   XYZ
    dof rx rz
    limits (-90.0 90.0)
           (-45.0 45.0)
  end
  begin
     id 22 
     name lfingers
     direction 1 -4.48961e-011 5.83968e-027   
     length 0.527534   
     axis -3.72598e-015 90 90   XYZ
    dof rx
    limits (0.0 90.0)
  end
  begin
     id 23
     name lthumb
     direction 0.707107 -6.34963e-011 0.707107   
     length 0.757437   
     axis -90 45 -6.68868e-015   XYZ
    dof rx rz
    limits (-45.0 45.0)
           (-45.0 45.0)
  end
  begin
     id 24 
     name rclavicle
     direction -0.902944 0.422599 -0.0781198   
     length 3.54432  
     axis 0 0 0   XYZ 
    dof ry rz
    limits (-10.0 20.0)
           (-20.0 0.0)
  end
  begin
     id 25 
     name rhumerus
     direction -1 -4.48953e-011 -4.75835e-028  
     length 5.09181   
     axis 180 30 90   XYZ
    dof rx ry rz
    limits (-90.0 60.0)
           (-90.0 90.0)
           (-90.0 90.0)
  end
  begin
     id 26 
     name rradius
     direction -1 -4.48986e-011 -3.25889e-027   
     length 3.49865   
     axis 180 30 90   XYZ
    dof rx
    limits (-10.0 170.0)
  end
  begin
     id 27 
     name rwrist
     direction -1 -4.48963e-011 1.45989e-027   
     length 1.74933   
     axis 1.49639e-024 -90 -90   XYZ
    dof ry
    limits (-180.0 0.0)
  end
  begin
     id 28
     name rhand
     direction -1 -4.49003e-011 2.91844e-027   
     length 0.66641   
     axis -1.863e-015 -90 -90   XYZ
    dof rx rz
    limits (-90.0 90.0)
           (-45.0 45.0)
  end
  begin
     id 29
     name rfingers
     direction -1 -4.48973e-011 5.83886e-027   
     length 0.537277   
     axis -3.72598e-015 -90 -90   XYZ
    dof rx
    limits (0.0 90.0)
  end
  begin
     id 30
     name rthumb
     direction -0.707107 -6.34976e-011 0.707107   
     length 0.771425   
     axis -90 -45 6.68868e-015   XYZ
    dof rx rz
    limits (-45.0 45.0)
           (-45.0 45.0)
  end
:hierarchy
  begin
    root lhipjoint rhipjoint lowerback
    lhipjoint lfemur
    lfemur ltibia
    ltibia lfoot
    lfoot ltoes
    rhipjoint rfemur
    rfemur rtibia
    rtibia rfoot
    rfoot rtoes
    lowerback upperback
    upperback thorax
    thorax lowerneck lclavicle rclavicle
    lowerneck upperneck
    upperneck head
    lclavicle lhumerus
    lhumerus lradius
    lradius lwrist
    lwrist lhand lthumb
    lhand lfingers
    rclavicle rhumerus
    rhumerus rradius
    rradius rwrist
    rwrist rhand rthumb
    rhand rfingers
  end

#!OML:ASF H:\LiuWeirdWalks\Patient Classification 1\Patient 1\Session 1\male.ASF
:FULLY-SPECIFIED
:DEGREES
105
root 0.61911 18.3118 5.69756 2.0014 3.91436 -1.27179
lowerback 2.10351 -0.440332 -0.855348
upperback -0.368092 -0.583397 1.73742
thorax -1.52989 -0.276264 2.28183
lowerneck -23.1423 0.585289 4.27949
upperneck 16.7128 0.457427 -4.9257
head 9.06332 -0.0736959 -2.33827
rclavicle 6.8208e-015 4.77083e-015
rhumerus -21.5846 -30.3739 -0.407245
rradius 21.9004
rwrist 6.333
rhand -11.5374 -10.141
rfingers 7.12502
rthumb 14.5028 -39.6141
lclavicle 6.8208e-015 4.77083e-015
lhumerus -22.5192 27.0754 6.58904
lradius 21.4634
lwrist -9.78826
lhand -13.9652 4.38364
lfingers 7.12502
lthumb 12.1626 34.0101
rfemur 0.13554 0.552673 14.4845
rtibia 14.6737
rfoot -5.69251 -25.0535
rtoes -5.07504
lfemur 0 0 0
ltibia 0
lfoot 0 0
ltoes 0
106
root 0.618854 18.3119 5.69803 2.00406 3.92337 -1.267
lowerback 2.1076 -0.442094 -0.860104
upperback -0.364617 -0.585936 1.73561
thorax -1.52847 -0.277537 2.28275
lowerneck -23.1272 0.574038 4.26415
upperneck 16.707 0.448678 -4.93086
head 9.05824 -0.0792487 -2.33858
rclavicle 3.85145e-015 0
rhumerus -21.5776 -30.5515 -0.348928
rradius 21.8602
rwrist 6.56957
rhand -11.4993 -10.0737
rfingers 7.12502
rthumb 14.5395 -39.5442
lclavicle 3.85145e-015 0
lhumerus -22.511 27.0438 6.59418
lradius 21.4672
lwrist -9.75424
lhand -13.9837 4.4006
lfingers 7.12502
lthumb 12.1449 34.0281
rfemur 0.1395 0.535127 14.4783
rtibia 14.6677
rfoot -5.68757 -25.0454
rtoes -5.08284
lfemur 0 0 0
ltibia 0
lfoot 0 0
ltoes 0
107
root 0.618542 18.312 5.69844 2.00545 3.93015 -1.26583
lowerback 2.11496 -0.443574 -0.863191
upperback -0.362517 -0.588017 1.73537
thorax -1.53033 -0.27855 2.28437
lowerneck -23.0969 0.567299 4.26026
upperneck 16.6942 0.444489 -4.9444
head 9.04843 -0.082719 -2.34281
rclavicle -1.10574e-014 -7.55382e-015
rhumerus -21.5614 -30.8175 -0.277642
rradius 21.7971
rwrist 6.86539
rhand -11.4766 -10.0467
rfingers 7.12502
rthumb 14.5613 -39.5156
lclavicle -1.10574e-014 -7.55382e-015
lhumerus -22.5065 27.0359 6.59135
lradius 21.4662
lwrist -9.74651
lhand -14.0113 4.39993
lfingers 7.12502
lthumb 12.1182 34.029
rfemur 0.142685 0.521155 14.4766
rtibia 14.6641
rfoot -5.68545 -25.0392
rtoes -5.09113
lfemur 0 0 0
ltibia 0
lfoot 0 0
ltoes 0
108
root 0.618193 18.3121 5.69886 2.00764 3.93644 -1.25764
lowerback 2.12027 -0.445139 -0.874097
upperback -0.360639 -0.590455 1.73296
thorax -1.53119 -0.27969 2.28815
lowerneck -23.0559 0.566243 4.26606
upperneck 16.6762 0.446149 -4.96273
head 9.03529 -0.0832499 -2.3493
rclavicle -8.05078e-015 -1.31198e-014
rhumerus -21.5398 -31.1191 -0.204338
rradius 21.7239
rwrist 7.16347
rhand -11.4742 -10.0421
rfingers 7.12502
rthumb 14.5637 -39.5109
lclavicle -8.05078e-015 -1.31198e-014
lhumerus -22.5051 27.0333 6.58412
lradius 21.4663
lwrist -9.74639
lhand -14.0406 4.37998
lfingers 7.12502
lthumb 12.0899 34.0107
rfemur 0.143586 0.505039 14.4667
rtibia 14.6643
rfoot -5.6874 -25.0314
rtoes -5.09431
lfemur 0 0 0
ltibia 0
lfoot 0 0
ltoes 0
109
root 0.617879 18.3121 5.69931 2.00957 3.94247 -1.25084
lowerback 2.12283 -0.447029 -0.883679
upperback -0.359671 -0.593274 1.73104
thorax -1.53142 -0.281029 2.29168
lowerneck -23.0179 0.565933 4.26552
upperneck 16.6745 0.449647 -4.97343
head 9.02836 -0.0824749 -2.35211
rclavicle 1.00138e-014 -1.07344e-014
rhumerus -21.5109 -31.3654 -0.149646
rradius 21.663
rwrist 7.38146
rhand -11.4956 -10.0911
rfingers 7.12502
rthumb 14.543 -39.5614
lclavicle 1.00138e-014 -1.07344e-014
lhumerus -22.5082 27.0321 6.57358
lradius 21.4676
lwrist -9.75673
lhand -14.063 4.34545
lfingers 7.12502
lthumb 12.0683 33.9774
rfemur 0.143594 0.487025 14.4581
rtibia 14.667
rfoot -5.6924 -25.0215
rtoes -5.09614
lfemur 0 0 0
ltibia 0
lfoot 0 0
ltoes 0
110
root 0.617555 18.3122 5.69972 2.01095 3.94693 -1.2452
lowerback 2.12608 -0.448777 -0.892485
upperback -0.358773 -0.595894 1.72846
thorax -1.53214 -0.282273 2.29409
lowerneck -22.9992 0.563577 4.25396
upperneck 16.7017 0.451009 -4.96986
head 9.03462 -0.0819713 -2.34906
rclavicle 9.0944e-015 -7.95139e-015
rhumerus -21.4836 -31.5065 -0.122682
rradius 21.6313
rwrist 7.48363
rhand -11.5309 -10.1392
rfingers 7.12502
rthumb 14.509 -39.6119
lclavicle 9.0944e-015 -7.95139e-015
lhumerus -22.5131 27.0299 6.56056
lradius 21.4726
lwrist -9.76086
lhand -14.0755 4.31033
lfingers 7.12502
lthumb 12.0563 33.943
rfemur 0.142301 0.47192 14.4511
rtibia 14.6722
rfoot -5.69796 -25.0136
rtoes -5.09493
lfemur 0 0 0
ltibia 0
lfoot 0 0
ltoes 0
111
root 0.617287 18.3122 5.7002 2.01195 3.95005 -1.24003
lowerback 2.12997 -0.45022 -0.901382
upperback -0.358522 -0.598101 1.72601
thorax -1.53391 -0.283295 2.2967
lowerneck -23.002 0.559772 4.23314
upperneck 16.7523 0.450804 -4.95464
head 9.05254 -0.0816884 -2.3412
rclavicle 1.70209e-015 -4.77083e-015
rhumerus -21.4562 -31.4563 -0.139452
rradius 21.6444
rwrist 7.38946
rhand -11.5863 -10.2041
rfingers 7.12502
rthumb 14.4557 -39.6806
lclavicle 1.70209e-015 -4.77083e-015
lhumerus -22.5179 27.0204 6.54984
lradius 21.4806
lwrist -9.75234
lhand -14.0807 4.2868
lfingers 7.12502
lthumb 12.0513 33.9198
rfemur 0.141817 0.457435 14.4447
rtibia 14.6767
rfoot -5.7009 -25.0051
rtoes -5.09878
lfemur 0 0 0
ltibia 0
lfoot 0 0
ltoes 0
112
root 0.617104 18.3122 5.70076 2.01252 3.95148 -1.2373
lowerback 2.13208 -0.450683 -0.906189
upperback -0.358301 -0.598892 1.72339
thorax -1.5348 -0.283654 2.29675
lowerneck -23.0256 0.554963 4.20826
upperneck 16.8223 0.449411 -4.93504
head 9.08076 -0.0819398 -2.33178
rclavicle 5.04416e-015 -1.23246e-014
rhumerus -21.4371 -31.2517 -0.184859
rradius 21.696
rwrist 7.15472
rhand -11.6405 -10.2665
rfingers 7.12502
rthumb 14.4034 -39.7468
lclavicle 5.04416e-015 -1.23246e-014
lhumerus -22.5205 27.0116 6.54101
lradius 21.4895
lwrist -9.74289
lhand -14.079 4.27323
lfingers 7.12502
lthumb 12.0529 33.9061
rfemur 0.142066 0.442934 14.4406
rtibia 14.68
rfoot -5.70189 -24.9957
rtoes -5.10227
lfemur 0 0 0
ltibia 0
lfoot 0 0
ltoes 0
113
root 0.616904 18.3123 5.70124 2.0133 3.95145 -1.23757
lowerback 2.13491 -0.452737 -0.909927
upperback -0.352394 -0.601827 1.7211
thorax -1.53018 -0.285183 2.29658
lowerneck -23.0851 0.554079 4.18759
upperneck 16.9035 0.450546 -4.91338
head 9.11917 -0.0808621 -2.32243
rclavicle 2.69602e-015 1.98785e-016
rhumerus -21.4137 -31.0192 -0.245388
rradius 21.7543
rwrist 6.8946
rhand -11.6927 -10.3209
rfingers 7.12502
rthumb 14.3531 -39.8047
lclavicle 2.69602e-015 1.98785e-016
lhumerus -22.5221 27.003 6.53253
lradius 21.5019
lwrist -9.71001
lhand -14.074 4.28745
lfingers 7.12502
lthumb 12.0577 33.9201
rfemur 0.14254 0.432751 14.4406
rtibia 14.6809
rfoot -5.70101 -24.9888
rtoes -5.10667
lfemur 0 0 0
ltibia 0
lfoot 0 0
ltoes 0
114
root 0.616746 18.3124 5.70166 2.01561 3.95167 -1.23644
lowerback 2.13733 -0.453415 -0.913144
upperback -0.349717 -0.602893 1.71804
thorax -1.52874 -0.285735 2.29528
lowerneck -23.1359 0.555796 4.17431
upperneck 16.9786 0.454342 -4.89815
head 9.15424 -0.0786982 -2.31599
rclavicle 6.68413e-015 4.77083e-015
rhumerus -21.4021 -30.7868 -0.29052
rradius 21.8074
rwrist 6.6744
rhand -11.7126 -10.365
rfingers 7.12502
rthumb 14.334 -39.8502
lclavicle 6.68413e-015 4.77083e-015
lhumerus -22.5169 26.9679 6.53652
lradius 21.5211
lwrist -9.65273
lhand -14.0677 4.33786
lfingers 7.12502
lthumb 12.0638 33.9701
rfemur 0.142046 0.423422 14.4389
rtibia 14.6805
rfoot -5.69896 -24.9816
rtoes -5.11068
lfemur 0 0 0
ltibia 0
lfoot 0 0
ltoes 0
115
root 0.616541 18.3124 5.70192 2.01765 3.95151 -1.23853
lowerback 2.14089 -0.453749 -0.912705
upperback -0.345311 -0.603412 1.7153
thorax -1.52623 -0.286065 2.29224
lowerneck -23.1843 0.562867 4.16951
upperneck 17.0348 0.463683 -4.88974
head 9.18261 -0.0741522 -2.31221
rclavicle -5.60324e-015 -1.90833e-014
rhumerus -21.3967 -30.5823 -0.323682
rradius 21.8549
rwrist 6.50348
rhand -11.7037 -10.4043
rfingers 7.12502
rthumb 14.3426 -39.8889
lclavicle -5.60324e-015 -1.90833e-014
lhumerus -22.508 26.931 6.54433
lradius 21.5428
lwrist -9.59361
lhand -14.0587 4.41216
lfingers 7.12502
lthumb 12.0725 34.0439
rfemur 0.141265 0.420061 14.4417
rtibia 14.6795
rfoot -5.69862 -24.9791
rtoes -5.11391
lfemur 0 0 0
ltibia 0
lfoot 0 0
ltoes 0
116
root 0.616348 18.3125 5.70209 2.02059 3.95199 -1.23667
lowerback 2.1434 -0.452887 -0.914659
upperback -0.34085 -0.602429 1.71071
thorax -1.52313 -0.285636 2.28858
lowerneck -23.2162 0.574854 4.17464
upperneck 17.0659 0.477958 -4.88881
head 9.19973 -0.0673477 -2.31143
rclavicle -9.31803e-016 -2.46493e-014
rhumerus -21.3979 -30.4509 -0.334098
rradius 21.8824
rwrist 6.41556
rhand -11.674 -10.3931
rfingers 7.12502
rthumb 14.3711 -39.8757
lclavicle -9.31803e-016 -2.46493e-014
lhumerus -22.4929 26.8843 6.55909
lradius 21.5668
lwrist -9.53147
lhand -14.0514 4.49663
lfingers 7.12502
lthumb 12.0796 34.128
rfemur 0.138816 0.417965 14.4403
rtibia 14.6798
rfoot -5.69693 -24.9781
rtoes -5.12006
lfemur 0 0 0
ltibia 0
lfoot 0 0
ltoes 0
